<?xml version="1.0" encoding="UTF-8"?>
<!DOCTYPE svg PUBLIC "-//W3C//DTD SVG 1.1//EN" "http://www.w3.org/Graphics/SVG/1.1/DTD/svg11.dtd">
<svg xmlns="http://www.w3.org/2000/svg" version="1.1" width="36px" height="36px" style="shape-rendering:geometricPrecision; text-rendering:geometricPrecision; image-rendering:optimizeQuality; fill-rule:evenodd; clip-rule:evenodd" xmlnsXlink="http://www.w3.org/1999/xlink">
<g><path style="opacity:1" fill="#fefefd" d="M -0.5,-0.5 C 11.5,-0.5 23.5,-0.5 35.5,-0.5C 35.5,11.5 35.5,23.5 35.5,35.5C 23.5,35.5 11.5,35.5 -0.5,35.5C -0.5,23.5 -0.5,11.5 -0.5,-0.5 Z"/></g>
<g><path style="opacity:1" fill="#eb5142" d="M 12.5,15.5 C 11.5,14.8333 10.5,14.1667 9.5,13.5C 13.2888,7.97608 17.9555,7.14275 23.5,11C 22.6667,11.8333 21.8333,12.6667 21,13.5C 17.5085,11.7715 14.6752,12.4382 12.5,15.5 Z"/></g>
<g><path style="opacity:1" fill="#f6bc1e" d="M 9.5,13.5 C 10.5,14.1667 11.5,14.8333 12.5,15.5C 12.5,16.8333 12.5,18.1667 12.5,19.5C 11.5,20.1667 10.5,20.8333 9.5,21.5C 8.16667,18.8333 8.16667,16.1667 9.5,13.5 Z"/></g>
<g><path style="opacity:1" fill="#8ab3f8" d="M 17.5,16.5 C 20.2869,15.5233 23.2869,15.19 26.5,15.5C 26.7845,17.4147 26.4511,19.0813 25.5,20.5C 25.5,19.1667 25.5,17.8333 25.5,16.5C 22.8333,16.5 20.1667,16.5 17.5,16.5 Z"/></g>
<g><path style="opacity:1" fill="#4a89f2" d="M 17.5,16.5 C 20.1667,16.5 22.8333,16.5 25.5,16.5C 25.5,17.8333 25.5,19.1667 25.5,20.5C 25.5,22.5 24.5,23.5 22.5,23.5C 21.8333,23.1667 21.1667,22.8333 20.5,22.5C 20.9528,21.5416 21.6195,20.7083 22.5,20C 20.8659,19.5065 19.1992,19.3398 17.5,19.5C 17.5,18.5 17.5,17.5 17.5,16.5 Z"/></g>
<g><path style="opacity:1" fill="#42ad5d" d="M 12.5,19.5 C 14.3914,22.1717 17.0581,23.1717 20.5,22.5C 21.1667,22.8333 21.8333,23.1667 22.5,23.5C 21.7142,25.7351 20.0476,26.7351 17.5,26.5C 13.8459,26.3431 11.1793,24.6764 9.5,21.5C 10.5,20.8333 11.5,20.1667 12.5,19.5 Z"/></g>
</svg>
